<mxfile host="app.diagrams.net" modified="2023-10-10T06:54:35.786Z" agent="Mozilla/5.0 (Windows NT 10.0; Win64; x64) AppleWebKit/537.36 (KHTML, like Gecko) Chrome/115.0.0.0 Safari/537.36" etag="g-xF1vGReYPdi_RfKLNa" version="22.0.4" type="github">
  <diagram id="C5RBs43oDa-KdzZeNtuy" name="Page-1">
    <mxGraphModel dx="1434" dy="758" grid="1" gridSize="10" guides="1" tooltips="1" connect="1" arrows="1" fold="1" page="1" pageScale="1" pageWidth="827" pageHeight="1169" math="0" shadow="0">
      <root>
        <mxCell id="WIyWlLk6GJQsqaUBKTNV-0" />
        <mxCell id="WIyWlLk6GJQsqaUBKTNV-1" parent="WIyWlLk6GJQsqaUBKTNV-0" />
        <mxCell id="mZA-LF0edy0R2iydBRlY-0" value="领用流程" style="rounded=1;whiteSpace=wrap;html=1;fontSize=12;glass=0;strokeWidth=1;shadow=0;fillColor=#dae8fc;strokeColor=#6c8ebf;" vertex="1" parent="WIyWlLk6GJQsqaUBKTNV-1">
          <mxGeometry x="50" y="40" width="120" height="40" as="geometry" />
        </mxCell>
        <mxCell id="mZA-LF0edy0R2iydBRlY-16" value="" style="edgeStyle=orthogonalEdgeStyle;rounded=0;orthogonalLoop=1;jettySize=auto;html=1;" edge="1" parent="WIyWlLk6GJQsqaUBKTNV-1" source="mZA-LF0edy0R2iydBRlY-2" target="mZA-LF0edy0R2iydBRlY-6">
          <mxGeometry relative="1" as="geometry" />
        </mxCell>
        <mxCell id="mZA-LF0edy0R2iydBRlY-2" value="开始" style="shape=hexagon;perimeter=hexagonPerimeter2;whiteSpace=wrap;html=1;fixedSize=1;" vertex="1" parent="WIyWlLk6GJQsqaUBKTNV-1">
          <mxGeometry x="190" y="130" width="100" height="60" as="geometry" />
        </mxCell>
        <mxCell id="mZA-LF0edy0R2iydBRlY-20" style="edgeStyle=orthogonalEdgeStyle;rounded=0;orthogonalLoop=1;jettySize=auto;html=1;entryX=0.5;entryY=0;entryDx=0;entryDy=0;" edge="1" parent="WIyWlLk6GJQsqaUBKTNV-1" source="mZA-LF0edy0R2iydBRlY-6" target="mZA-LF0edy0R2iydBRlY-18">
          <mxGeometry relative="1" as="geometry" />
        </mxCell>
        <mxCell id="mZA-LF0edy0R2iydBRlY-21" style="edgeStyle=orthogonalEdgeStyle;rounded=0;orthogonalLoop=1;jettySize=auto;html=1;" edge="1" parent="WIyWlLk6GJQsqaUBKTNV-1" source="mZA-LF0edy0R2iydBRlY-6" target="mZA-LF0edy0R2iydBRlY-19">
          <mxGeometry relative="1" as="geometry" />
        </mxCell>
        <mxCell id="mZA-LF0edy0R2iydBRlY-6" value="门禁" style="rounded=1;whiteSpace=wrap;html=1;" vertex="1" parent="WIyWlLk6GJQsqaUBKTNV-1">
          <mxGeometry x="180" y="250" width="120" height="60" as="geometry" />
        </mxCell>
        <mxCell id="mZA-LF0edy0R2iydBRlY-9" style="edgeStyle=orthogonalEdgeStyle;rounded=0;orthogonalLoop=1;jettySize=auto;html=1;entryX=1;entryY=0.5;entryDx=0;entryDy=0;" edge="1" parent="WIyWlLk6GJQsqaUBKTNV-1" source="mZA-LF0edy0R2iydBRlY-8" target="mZA-LF0edy0R2iydBRlY-6">
          <mxGeometry relative="1" as="geometry" />
        </mxCell>
        <mxCell id="mZA-LF0edy0R2iydBRlY-8" value="本地服务器每5分钟&lt;br&gt;调用接口" style="rounded=1;whiteSpace=wrap;html=1;" vertex="1" parent="WIyWlLk6GJQsqaUBKTNV-1">
          <mxGeometry x="358" y="250" width="120" height="60" as="geometry" />
        </mxCell>
        <mxCell id="mZA-LF0edy0R2iydBRlY-11" style="edgeStyle=orthogonalEdgeStyle;rounded=0;orthogonalLoop=1;jettySize=auto;html=1;entryX=1;entryY=0.5;entryDx=0;entryDy=0;" edge="1" parent="WIyWlLk6GJQsqaUBKTNV-1" source="mZA-LF0edy0R2iydBRlY-10" target="mZA-LF0edy0R2iydBRlY-8">
          <mxGeometry relative="1" as="geometry" />
        </mxCell>
        <mxCell id="mZA-LF0edy0R2iydBRlY-10" value="3天航班信息&#xa;" style="strokeWidth=2;shape=mxgraph.flowchart.document2;size=0.25;align=center;whiteSpace=wrap;labelBackgroundColor=none;labelBorderColor=none;verticalAlign=middle;" vertex="1" parent="WIyWlLk6GJQsqaUBKTNV-1">
          <mxGeometry x="540" y="170" width="160" height="60" as="geometry" />
        </mxCell>
        <mxCell id="mZA-LF0edy0R2iydBRlY-13" style="edgeStyle=orthogonalEdgeStyle;rounded=0;orthogonalLoop=1;jettySize=auto;html=1;entryX=1;entryY=0.5;entryDx=0;entryDy=0;" edge="1" parent="WIyWlLk6GJQsqaUBKTNV-1" source="mZA-LF0edy0R2iydBRlY-12" target="mZA-LF0edy0R2iydBRlY-8">
          <mxGeometry relative="1" as="geometry" />
        </mxCell>
        <mxCell id="mZA-LF0edy0R2iydBRlY-12" value="3天近期排班计划&lt;br&gt;" style="strokeWidth=2;html=1;shape=mxgraph.flowchart.document2;whiteSpace=wrap;size=0.25;verticalAlign=middle;align=center;" vertex="1" parent="WIyWlLk6GJQsqaUBKTNV-1">
          <mxGeometry x="540" y="247.5" width="160" height="65" as="geometry" />
        </mxCell>
        <mxCell id="mZA-LF0edy0R2iydBRlY-15" style="edgeStyle=orthogonalEdgeStyle;rounded=0;orthogonalLoop=1;jettySize=auto;html=1;entryX=1;entryY=0.5;entryDx=0;entryDy=0;" edge="1" parent="WIyWlLk6GJQsqaUBKTNV-1" source="mZA-LF0edy0R2iydBRlY-14" target="mZA-LF0edy0R2iydBRlY-8">
          <mxGeometry relative="1" as="geometry" />
        </mxCell>
        <mxCell id="mZA-LF0edy0R2iydBRlY-14" value="&lt;span style=&quot;&quot;&gt;&lt;span style=&quot;&quot;&gt;&amp;nbsp;&amp;nbsp;&amp;nbsp;&amp;nbsp;&lt;/span&gt;&lt;/span&gt;签到信息" style="strokeWidth=2;html=1;shape=mxgraph.flowchart.document2;whiteSpace=wrap;size=0.25;verticalAlign=top;align=left;" vertex="1" parent="WIyWlLk6GJQsqaUBKTNV-1">
          <mxGeometry x="540" y="330" width="160" height="63" as="geometry" />
        </mxCell>
        <mxCell id="mZA-LF0edy0R2iydBRlY-26" value="" style="edgeStyle=orthogonalEdgeStyle;rounded=0;orthogonalLoop=1;jettySize=auto;html=1;" edge="1" parent="WIyWlLk6GJQsqaUBKTNV-1" source="mZA-LF0edy0R2iydBRlY-17" target="mZA-LF0edy0R2iydBRlY-25">
          <mxGeometry relative="1" as="geometry" />
        </mxCell>
        <mxCell id="mZA-LF0edy0R2iydBRlY-27" value="通过" style="edgeLabel;html=1;align=center;verticalAlign=middle;resizable=0;points=[];" vertex="1" connectable="0" parent="mZA-LF0edy0R2iydBRlY-26">
          <mxGeometry x="0.32" relative="1" as="geometry">
            <mxPoint as="offset" />
          </mxGeometry>
        </mxCell>
        <mxCell id="mZA-LF0edy0R2iydBRlY-30" style="edgeStyle=orthogonalEdgeStyle;rounded=0;orthogonalLoop=1;jettySize=auto;html=1;exitX=0;exitY=0.5;exitDx=0;exitDy=0;exitPerimeter=0;" edge="1" parent="WIyWlLk6GJQsqaUBKTNV-1" source="mZA-LF0edy0R2iydBRlY-17">
          <mxGeometry relative="1" as="geometry">
            <mxPoint x="120" y="570" as="targetPoint" />
          </mxGeometry>
        </mxCell>
        <mxCell id="mZA-LF0edy0R2iydBRlY-31" value="否" style="edgeLabel;html=1;align=center;verticalAlign=middle;resizable=0;points=[];" vertex="1" connectable="0" parent="mZA-LF0edy0R2iydBRlY-30">
          <mxGeometry x="-0.1305" y="-3" relative="1" as="geometry">
            <mxPoint as="offset" />
          </mxGeometry>
        </mxCell>
        <mxCell id="mZA-LF0edy0R2iydBRlY-17" value="验证身份&lt;br&gt;+排班信息" style="strokeWidth=2;html=1;shape=mxgraph.flowchart.decision;whiteSpace=wrap;" vertex="1" parent="WIyWlLk6GJQsqaUBKTNV-1">
          <mxGeometry x="200" y="520" width="100" height="100" as="geometry" />
        </mxCell>
        <mxCell id="mZA-LF0edy0R2iydBRlY-23" style="edgeStyle=orthogonalEdgeStyle;rounded=0;orthogonalLoop=1;jettySize=auto;html=1;" edge="1" parent="WIyWlLk6GJQsqaUBKTNV-1" source="mZA-LF0edy0R2iydBRlY-18" target="mZA-LF0edy0R2iydBRlY-17">
          <mxGeometry relative="1" as="geometry" />
        </mxCell>
        <mxCell id="mZA-LF0edy0R2iydBRlY-18" value="正常排班" style="rounded=1;whiteSpace=wrap;html=1;" vertex="1" parent="WIyWlLk6GJQsqaUBKTNV-1">
          <mxGeometry x="110" y="390" width="120" height="60" as="geometry" />
        </mxCell>
        <mxCell id="mZA-LF0edy0R2iydBRlY-24" style="edgeStyle=orthogonalEdgeStyle;rounded=0;orthogonalLoop=1;jettySize=auto;html=1;" edge="1" parent="WIyWlLk6GJQsqaUBKTNV-1" source="mZA-LF0edy0R2iydBRlY-19" target="mZA-LF0edy0R2iydBRlY-17">
          <mxGeometry relative="1" as="geometry" />
        </mxCell>
        <mxCell id="mZA-LF0edy0R2iydBRlY-19" value="加机组计划" style="rounded=1;whiteSpace=wrap;html=1;" vertex="1" parent="WIyWlLk6GJQsqaUBKTNV-1">
          <mxGeometry x="260" y="390" width="120" height="60" as="geometry" />
        </mxCell>
        <mxCell id="mZA-LF0edy0R2iydBRlY-25" value="开门" style="rounded=1;whiteSpace=wrap;html=1;" vertex="1" parent="WIyWlLk6GJQsqaUBKTNV-1">
          <mxGeometry x="190" y="680" width="120" height="60" as="geometry" />
        </mxCell>
      </root>
    </mxGraphModel>
  </diagram>
</mxfile>
